<svg width="626" height="525" viewBox="0 0 626 525" fill="none" xmlns="http://www.w3.org/2000/svg">
<path d="M235.18 492.679C216.55 492.679 219.718 485.645 213.292 467.906L158.514 287.629L580.18 37.4707" fill="#D7DBE0"/>
<path d="M235.182 492.679C249.557 492.679 255.906 486.105 263.932 478.304L340.598 403.756L244.966 346.088" fill="#B4BCC2"/>
<path d="M244.956 346.102L476.681 517.304C503.127 531.894 522.207 524.338 528.796 492.756L623.119 48.2665C632.775 9.54988 608.361 -8.01637 583.061 3.46926L29.1924 217.039C-8.6138 232.204 -8.38859 253.297 22.302 262.694L164.437 307.06L493.495 99.4607C509.03 90.0403 523.29 95.1003 511.589 105.489" fill="white"/>
</svg>
