<svg width="125" height="104" viewBox="0 0 125 104" fill="none" xmlns="http://www.w3.org/2000/svg">
<path fill-rule="evenodd" clip-rule="evenodd" d="M8.58554 44.5561C42.1104 29.9498 64.4655 20.3205 75.651 15.6681C107.588 2.38451 114.224 0.0770075 118.549 0.00081241C119.501 -0.0159458 121.628 0.21982 123.006 1.33784C124.169 2.28188 124.489 3.55713 124.642 4.45218C124.795 5.34723 124.986 7.38618 124.834 8.97935C123.104 27.1636 115.615 71.2919 111.806 91.6585C110.193 100.276 107.019 103.166 103.946 103.449C97.2681 104.063 92.1969 99.0352 85.7287 94.7952C75.6072 88.1605 69.8892 84.0303 60.0645 77.556C48.7104 70.0738 56.0708 65.9615 62.5415 59.2408C64.2349 57.4819 93.6595 30.718 94.229 28.2901C94.3002 27.9864 94.3663 26.8546 93.6939 26.2569C93.0215 25.6592 92.029 25.8636 91.3129 26.0261C90.2977 26.2566 74.1285 36.9438 42.8052 58.0879C38.2156 61.2395 34.0585 62.775 30.3339 62.6945C26.2278 62.6058 18.3293 60.3729 12.4576 58.4642C5.25575 56.1232 -0.468169 54.8855 0.0302558 50.9096C0.289866 48.8388 3.14163 46.7209 8.58554 44.5561Z" fill="url(#paint0_linear_103_153)"/>
<defs>
<linearGradient id="paint0_linear_103_153" x1="122.82" y1="0.690003" x2="54.74" y2="74.75" gradientUnits="userSpaceOnUse">
<stop stop-color="#475361"/>
<stop offset="1" stop-color="#1D1D1D"/>
</linearGradient>
</defs>
</svg>
